<?xml version="1.0" encoding="UTF-8" standalone="no"?><!DOCTYPE svg PUBLIC "-//W3C//DTD SVG 1.1//EN" "http://www.w3.org/Graphics/SVG/1.1/DTD/svg11.dtd"><svg width="100%" height="100%" viewBox="0 0 8814 7016" version="1.1" xmlns="http://www.w3.org/2000/svg" xmlns:xlink="http://www.w3.org/1999/xlink" xml:space="preserve" xmlns:serif="http://www.serif.com/" style="fill-rule:evenodd;clip-rule:evenodd;stroke-linejoin:round;stroke-miterlimit:2;"><g><path d="M8256.107,5805.067l-7699.08,0c-82.661,0 -149.667,-66.987 -149.667,-149.653l0.008,-4378.245c0,-82.653 66.997,-149.656 149.659,-149.656c2873.747,0 4825.933,-0.027 7699.08,0c82.667,0 149.68,66.995 149.68,149.656l0,4378.245c0,82.667 -67.013,149.653 -149.68,149.653Z" style="fill:#474d53;"/><path d="M7889.387,5805.067l-6965.627,0c-94.792,0 -172.125,-77.333 -172.125,-172.133l0,-3989.027c0,-94.805 77.325,-172.131 172.133,-172.131c2321.885,0 4643.726,-0.008 6965.619,0c94.8,0 172.133,77.333 172.133,172.125l0,3989.032c0,94.8 -77.333,172.133 -172.133,172.133Z" style="fill:#7baff2;"/><path d="M8663.493,7016l-8513.829,0c-82.661,0 -149.664,-58.374 -149.664,-130.411l0,-1055.258c0,-72.014 66.995,-130.411 149.664,-130.411l8513.829,0c82.64,0 149.653,58.397 149.653,130.411l0,1055.258c0,72.038 -67.013,130.411 -149.653,130.411Z" style="fill:#1e2126;"/><path d="M2577.048,5699.92l3659.051,0l0,593.056c-0.027,64.902 -67.04,117.531 -149.68,117.531l-3359.706,0c-82.653,0 -149.664,-52.629 -149.664,-117.551l0,-593.035Z" style="fill:#474d53;"/><path d="M7582.64,5080.053c-2304.053,0 -5010.579,0.027 -6352.136,0c-61.675,0 -111.667,-50 -111.667,-111.653l0,-4212.192l6575.456,-0l0,4212.192c0,61.653 -49.973,111.653 -111.654,111.653Z" style="fill:#64798a;"/><path d="M7565.867,4951.627l0,-4067.003l-6318.603,0l0,4067.003c2106.203,0.027 4212.416,0 6318.603,0Z" style="fill:#f5f5f5;"/><path d="M1118.837,918.171l0,-805.435c0,-61.674 49.984,-111.669 111.667,-111.669l6352.136,0.011c61.68,0 111.654,49.984 111.654,111.658l0,805.435l-6575.456,0Z" style="fill:#354a59;"/><path d="M2080.149,648.339l-364.136,0c-104.203,0 -188.715,-84.512 -188.715,-188.717c0,-104.202 84.512,-188.723 188.715,-188.723l364.152,0.016c104.195,0 188.707,84.512 188.707,188.706c0,104.214 -84.528,188.717 -188.723,188.717Z" style="fill:#1d2830;"/><path d="M2080.149,571.283l-364.136,0c-61.667,0 -111.659,-49.984 -111.659,-111.661c0,-61.674 49.984,-111.667 111.659,-111.667l364.152,0.008c61.667,0 111.659,49.984 111.659,111.658c0,61.678 -50.008,111.661 -111.675,111.661Z" style="fill:#ef5350;"/><path d="M3162.907,648.339l-364.16,0c-104.187,0 -188.709,-84.512 -188.709,-188.717c0,-104.202 84.523,-188.723 188.709,-188.723l364.16,0.016c104.214,0 188.693,84.512 188.693,188.706c0,104.206 -84.507,188.717 -188.693,188.717Z" style="fill:#1d2830;"/><path d="M3162.907,571.283l-364.16,0c-61.653,0 -111.653,-49.984 -111.653,-111.661c0,-61.674 49.973,-111.667 111.653,-111.667l364.16,0.008c61.653,0 111.653,49.984 111.653,111.658c0,61.678 -50,111.661 -111.653,111.661Z" style="fill:#ffe270;"/><path d="M3651.325,6330.507c142.213,0 258.213,-116 258.213,-258.213c0,-142.213 -116,-258.187 -258.213,-258.187c-142.187,0 -258.187,115.973 -258.187,258.187c0,142.213 116,258.213 258.187,258.213Z" style="fill:#1e2126;"/><path d="M3651.325,6222.373c82.667,0 150.053,-67.413 150.053,-150.08c0,-82.64 -67.387,-150.027 -150.053,-150.027c-82.64,0 -150.053,67.387 -150.053,150.027c0,82.667 67.413,150.08 150.053,150.08Z" style="fill:#ffe270;"/><path d="M4406.552,6330.507c142.214,0 258.214,-116 258.214,-258.213c0,-142.213 -116,-258.187 -258.214,-258.187c-142.187,0 -258.187,115.973 -258.187,258.187c0,142.213 116,258.213 258.187,258.213Z" style="fill:#1e2126;"/><path d="M4406.552,6222.373c82.667,0 150.08,-67.413 150.08,-150.08c0,-82.64 -67.413,-150.027 -150.08,-150.027c-82.64,0 -150.053,67.387 -150.053,150.027c0,82.667 67.413,150.08 150.053,150.08Z" style="fill:#ffe270;"/><path d="M5161.805,6330.507c142.187,0 258.187,-116 258.187,-258.213c0,-142.213 -116,-258.187 -258.187,-258.187c-142.214,0 -258.214,115.973 -258.214,258.187c0,142.213 116,258.213 258.214,258.213Z" style="fill:#1e2126;"/><path d="M5161.805,6222.373c82.64,0 150.053,-67.413 150.053,-150.08c0,-82.64 -67.413,-150.027 -150.053,-150.027c-82.64,0 -150.08,67.387 -150.08,150.027c0,82.667 67.44,150.08 150.08,150.08Z" style="fill:#ffe270;"/><path d="M3964.16,2571.011c-35.894,0 -71.894,-12.816 -100.56,-38.838l-449.067,-407.672c-31.227,-28.368 -49.066,-68.608 -49.066,-110.811c0,-42.2 17.84,-82.453 49.066,-110.819l449.067,-407.664c61.227,-55.573 155.867,-50.96 211.413,10.214c55.547,61.195 50.987,155.843 -10.213,211.4l-327.013,296.869l327.013,296.845c61.2,55.555 65.786,150.211 10.213,211.4c-29.547,32.552 -70.133,49.075 -110.853,49.075Z" style="fill:#354a59;"/><path d="M4974.693,2571.011c-40.72,0 -81.333,-16.523 -110.854,-49.067c-55.573,-61.205 -50.987,-155.861 10.214,-211.4l326.987,-296.853l-326.987,-296.845c-61.2,-55.557 -65.787,-150.213 -10.214,-211.39c55.547,-61.197 150.187,-65.77 211.387,-10.229l449.094,407.664c31.253,28.365 49.066,68.608 49.066,110.816c0,42.202 -17.813,82.437 -49.066,110.811l-449.094,407.664c-28.667,26.013 -64.667,38.829 -100.533,38.829Z" style="fill:#354a59;"/><path d="M4749.573,2163.349l-560.32,0c-82.667,0 -149.653,-66.997 -149.653,-149.659c0,-82.672 66.987,-149.659 149.653,-149.659l560.32,0c82.667,0 149.653,66.997 149.653,149.659c0,82.669 -66.987,149.659 -149.653,149.659Z" style="fill:#354a59;"/><path d="M2401.989,3149.493l-508.715,0c-82.664,0 -149.667,-66.987 -149.667,-149.654c0,-82.667 67.003,-149.653 149.667,-149.653l508.715,0c82.653,0 149.659,66.987 149.659,149.653c0,82.667 -67.005,149.654 -149.659,149.654Z" style="fill:#354a59;"/><path d="M4119.44,3149.493l-1017.467,0c-82.667,0 -149.653,-66.987 -149.653,-149.654c0,-82.667 66.987,-149.653 149.653,-149.653l1017.467,0c82.667,0 149.653,66.987 149.653,149.653c0,82.667 -66.987,149.654 -149.653,149.654Z" style="fill:#354a59;"/><path d="M6919.867,3149.493l-2100.453,0c-82.64,0 -149.653,-66.987 -149.653,-149.654c0,-82.667 66.987,-149.653 149.653,-149.653l2100.453,0c82.64,0 149.654,66.987 149.654,149.653c0,82.667 -67.014,149.654 -149.654,149.654Z" style="fill:#354a59;"/><path d="M6919.867,3781.467l-383.013,0c-82.667,0 -149.68,-67.013 -149.68,-149.653c0,-82.667 67.014,-149.68 149.68,-149.68l383.013,0c82.64,0 149.654,67.013 149.654,149.68c0,82.64 -67.014,149.653 -149.654,149.653Z" style="fill:#354a59;"/><path d="M5836.88,3781.467l-1017.467,0c-82.64,0 -149.653,-67.013 -149.653,-149.653c0,-82.667 66.987,-149.68 149.653,-149.68l1017.467,0c82.667,0 149.653,67.013 149.653,149.68c0,82.64 -66.986,149.653 -149.653,149.653Z" style="fill:#354a59;"/><path d="M4119.44,3781.467l-2226.165,0c-82.664,0 -149.667,-67.013 -149.667,-149.653c0,-82.667 67.003,-149.68 149.667,-149.68l2226.165,0c82.667,0 149.653,67.013 149.653,149.68c0,82.64 -66.987,149.653 -149.653,149.653Z" style="fill:#354a59;"/><path d="M2401.989,4413.44l-508.715,0c-82.664,0 -149.667,-67.013 -149.667,-149.68c0,-82.667 67.003,-149.653 149.667,-149.653l508.715,0c82.653,0 149.659,66.987 149.659,149.653c0,82.693 -67.005,149.68 -149.659,149.68Z" style="fill:#354a59;"/><path d="M5426.587,4413.44l-2324.613,0c-82.667,0 -149.653,-67.013 -149.653,-149.68c0,-82.667 66.987,-149.653 149.653,-149.653l2324.587,0c82.667,0 149.68,66.987 149.68,149.653c0,82.693 -66.987,149.68 -149.654,149.68Z" style="fill:#354a59;"/><path d="M6919.867,4413.44l-733.013,0c-82.64,0 -149.654,-67.013 -149.654,-149.68c0,-82.667 67.014,-149.653 149.654,-149.653l733.013,0c82.667,0 149.654,66.987 149.654,149.653c0,82.693 -67.014,149.68 -149.654,149.68Z" style="fill:#354a59;"/></g></svg>